# xmcd CD database file
#
# Track frame offsets:
#	150
#	9197
#	28475
#	38967
#	45758
#	66066
#	86111
#	100150
#	107936
#	116379
#	130332
#	140433
#	155512
#	166320
#	172138
#	186234
#	208460
#	227631
#	248718
#	264390
#	274808
#	294324
#
# Disc length: 4194 seconds
#
# Revision: 0
# Processed by: cddbd v1.4PL0 Copyright (c) Steve Scherf et al.
# Submitted via: CDex 1.50
#
DISCID=3c106016
DTITLE=Tom Waits - Swordfishtrombones
DYEAR=1983
DGENRE=Blues
TTITLE0=Underground
TTITLE1=Shore Leave
TTITLE2=Dave The Butcher
TTITLE3=Johnsburg, Illinois
TTITLE4=16 Shells From A Thirty Ought Six
TTITLE5=Town With No Cheer
TTITLE6=In The Neighbourhood
TTITLE7=Just Another Sucker On The Vine
TTITLE8=Franks Wild Years
TTITLE9=Swordfishtrombone
TTITLE10=Down, Down, Down
TTITLE11=Sondier's Things
TTITLE12=Gin Soaked Boy
TTITLE13=Trouble's Braids
TTITLE14=Rainbirds
TTITLE15=Allen Ginsberg America
TTITLE16=The World Keeps Turning
TTITLE17=Pista De Audio 18
TTITLE18=Pista De Audio 19
TTITLE19=Pista De Audio 20
TTITLE20=Pista De Audio 21
TTITLE21=Pista De Audio 22
EXTD=YEAR: 1983
EXTT0=
EXTT1=
EXTT2=
EXTT3=
EXTT4=
EXTT5=
EXTT6=
EXTT7=
EXTT8=
EXTT9=
EXTT10=
EXTT11=
EXTT12=
EXTT13=
EXTT14=
EXTT15=
EXTT16=
EXTT17=
EXTT18=
EXTT19=
EXTT20=
EXTT21=
PLAYORDER=
